<svg xmlns="http://www.w3.org/2000/svg" xmlns:xlink="http://www.w3.org/1999/xlink" width="1060" height="441" viewBox="0 0 1060 441">
  <defs>
    <circle id="desk-a" cx="96.075" cy="96.075" r="77.075"/>
    <circle id="desk-b" cx="103.5" cy="57.5" r="46.5"/>
    <path id="desk-c" d="M46.5,93 C72.1812409,93 93,72.1812409 93,46.5 C93,20.8187591 72.1812409,0 46.5,0 C20.8187591,0 0,20.8187591 0,46.5 C0,72.1812409 20.8187591,93 46.5,93 Z"/>
  </defs>
  <g fill="none" fill-rule="evenodd">
    <g transform="translate(260 5)">
      <g transform="translate(0 8)">
        <path fill="#727C85" d="M0,27.9999614 C0,12.5360097 12.544421,0 28.0008864,0 L259.006527,0 C263.973485,0 268,4.02789405 268,8.99313155 L268,385.006868 C268,389.973638 263.977177,394 259.006527,394 L28.0008864,394 C12.5364239,394 0,381.461388 0,366.000039 L0,27.9999614 Z"/>
        <rect width="244" height="348" x="24" y="23" fill="#FFF"/>
        <g fill="#F5F3ED" fill-rule="nonzero" transform="translate(24 63)">
          <polygon points="0 5 244 5 244 0 0 0"/>
          <polygon points="0 27 244 27 244 22 0 22"/>
          <polygon points="0 49 244 49 244 44 0 44"/>
          <polygon points="0 71 244 71 244 66 0 66"/>
          <polygon points="0 93 244 93 244 88 0 88"/>
          <polygon points="0 115 244 115 244 110 0 110"/>
          <polygon points="0 137 244 137 244 132 0 132"/>
          <polygon points="0 159 244 159 244 154 0 154"/>
          <polygon points="0 181 244 181 244 176 0 176"/>
          <polygon points="0 203 244 203 244 198 0 198"/>
          <polygon points="0 225 244 225 244 220 0 220"/>
          <polygon points="0 247 244 247 244 242 0 242"/>
          <polygon points="0 269 244 269 244 264 0 264"/>
          <polygon points="0 291 244 291 244 286 0 286"/>
        </g>
      </g>
      <g transform="matrix(-1 0 0 1 541 8)">
        <path fill="#727C85" d="M0,27.9999614 C0,12.5360097 12.544421,0 28.0008864,0 L259.006527,0 C263.973485,0 268,4.02789405 268,8.99313155 L268,385.006868 C268,389.973638 263.977177,394 259.006527,394 L28.0008864,394 C12.5364239,394 0,381.461388 0,366.000039 L0,27.9999614 Z"/>
        <rect width="244" height="348" x="24" y="23" fill="#FFF"/>
        <g fill="#F5F3ED" fill-rule="nonzero" transform="translate(24 63)">
          <polygon points="0 5 244 5 244 0 0 0"/>
          <polygon points="0 27 244 27 244 22 0 22"/>
          <polygon points="0 49 244 49 244 44 0 44"/>
          <polygon points="0 71 244 71 244 66 0 66"/>
          <polygon points="0 93 244 93 244 88 0 88"/>
          <polygon points="0 115 244 115 244 110 0 110"/>
          <polygon points="0 137 244 137 244 132 0 132"/>
          <polygon points="0 159 244 159 244 154 0 154"/>
          <polygon points="0 181 244 181 244 176 0 176"/>
          <polygon points="0 203 244 203 244 198 0 198"/>
          <polygon points="0 225 244 225 244 220 0 220"/>
          <polygon points="0 247 244 247 244 242 0 242"/>
          <polygon points="0 269 244 269 244 264 0 264"/>
          <polygon points="0 291 244 291 244 286 0 286"/>
        </g>
      </g>
      <g transform="translate(155)">
        <path fill="#D84026" d="M0,5.00194868 C0,2.2394487 2.23541279,0 4.99202633,0 L19,0 L19,267 L3.82207795,279.781408 C1.71120259,281.558987 0,280.763243 0,277.998051 L0,5.00194868 Z M38,5 L38,278 C38,280.903582 36.4348064,281.822741 35,280 L19,267 L19,0 L34,0 C36.0736185,0 38,2.24056809 38,5 Z"/>
        <rect width="38" height="5" y="218" fill="#DC9A9E"/>
        <rect width="38" height="5" y="232" fill="#DC9A9E"/>
      </g>
      <g transform="translate(309 82)">
        <rect width="24" height="281" y="48" fill="#C49832"/>
        <path fill="#DC9A9E" d="M0,329 L24,329 L24,339.5 C24,345.29899 19.3013037,350 13.5081645,350 L10.4918355,350 C4.69735475,350 0,345.300265 0,339.5 L0,329 Z"/>
        <path fill="#34393E" d="M15.0466321,17.4093264 L24,48 L0,48 L9.29032258,16.2580645 L15.0466321,17.4093264 Z"/>
        <path fill="#34393E" d="M21.2401055,11.530343 L18,1 L14.8989899,10.3030303 L21.2401055,11.530343 Z" transform="rotate(39 18 6)"/>
        <rect width="12" height="281" x="12" y="48" fill="#FFF" opacity=".5"/>
        <rect width="24" height="9" y="327" fill="#34393E"/>
      </g>
    </g>
    <path fill="#34393D" d="M858.256983,113.163967 C843.477753,112.267429 814.63897,106.57638 803.006853,121.415741 C795.661908,130.785858 791.365826,147.438438 778.352507,152.682008 C758.652198,160.620024 735.304952,150.591523 715.355484,158.126644 C694.114134,166.149722 680.369255,182.542686 675.106376,217.827804 C670.440714,249.108864 629.826151,240.721361 624.836391,273.542425 C619.846632,306.363489 694.863542,292.504739 716.421793,318.367774 C734.788324,340.401761 674.771569,351.040809 703.250459,397.710822 C717.003374,420.248524 764.425872,429.818741 792.226635,391.48665 C798.194285,383.25837 807.449805,350.813442 824.195696,350.813442 C840.941587,350.813442 840.308298,379.665333 863.284961,390.199124 C885.736162,400.492014 906.676288,376.065641 907.567053,357.16755 C908.802762,330.951296 888.673802,314.425817 891.430239,295.686843 C894.186676,276.94787 905.049348,273.542425 905.049348,245.767426 C905.049348,217.992427 884.098809,217.827804 884.098809,201.207124 C884.098809,190.834367 892.792845,182.231234 895.089057,172.125982 C899.312425,153.539633 891.541076,129.935981 875.495638,119.699146" opacity=".698" transform="rotate(44 766.11 264.395)"/>
    <g transform="translate(815 129)">
      <path fill="#D84026" fill-rule="nonzero" d="M95.7089844,172.784361 C138.27654,172.784361 172.784361,138.27654 172.784361,95.7089844 C172.784361,53.1414292 138.27654,18.6336076 95.7089844,18.6336076 C53.1414292,18.6336076 18.6336076,53.1414292 18.6336076,95.7089844 C18.6336076,138.27654 53.1414292,172.784361 95.7089844,172.784361 Z M95.7089844,191.417969 C42.8503719,191.417969 0,148.567597 0,95.7089844 C0,42.8503719 42.8503719,0 95.7089844,0 C148.567597,0 191.417969,42.8503719 191.417969,95.7089844 C191.417969,148.567597 148.567597,191.417969 95.7089844,191.417969 Z"/>
      <g stroke-linecap="square">
        <use fill="#34393D" xlink:href="#desk-a"/>
        <circle cx="96.075" cy="96.075" r="88.075" stroke="#D84026" stroke-width="22"/>
      </g>
      <path fill="#D84026" d="M173,71 L220.997372,71 C233.701373,71 244,81.3018712 244,93.993521 L244,97.006479 C244,109.70545 233.694967,120 220.997372,120 L173,120 L173,71 Z"/>
    </g>
    <g transform="matrix(-1 0 0 1 379 106)">
      <path fill="#C49832" fill-rule="nonzero" d="M9.26093426 111.42903L54.4837132 78.1331379C56.929799 76.3321737 57.4527733 72.8892594 55.651809 70.4431736 53.8508448 67.9970878 50.4079304 67.4741135 47.9618447 69.2750777L2.73906574 102.57097C.292979951 104.371934-.229994376 107.814848 1.57096989 110.260934 3.37193415 112.70702 6.81484847 113.229994 9.26093426 111.42903zM375.327593 102.57097L328.784294 68.3028269C326.338208 66.5018626 322.895294 67.024837 321.09433 69.4709227 319.293365 71.9170085 319.81634 75.3599229 322.262425 77.1608871L368.805724 111.42903C371.25181 113.229994 374.694724 112.70702 376.495689 110.260934 378.296653 107.814848 377.773678 104.371934 375.327593 102.57097z"/>
      <g stroke-linecap="square">
        <use fill="#FFF" fill-opacity=".8" xlink:href="#desk-b"/>
        <circle cx="103.5" cy="57.5" r="52" stroke="#C49832" stroke-width="11"/>
      </g>
      <path fill="#C49832" fill-rule="nonzero" d="M274.5,115 C242.743627,115 217,89.2563731 217,57.5 C217,25.7436269 242.743627,0 274.5,0 C306.256373,0 332,25.7436269 332,57.5 C332,89.2563731 306.256373,115 274.5,115 Z M274.5,104 C300.181241,104 321,83.1812409 321,57.5 C321,31.8187591 300.181241,11 274.5,11 C248.818759,11 228,31.8187591 228,57.5 C228,83.1812409 248.818759,104 274.5,104 Z"/>
      <path fill="#C49832" fill-rule="nonzero" d="M161,58 L217,58 C217,42.536027 204.463973,30 189,30 C173.536027,30 161,42.536027 161,58 Z M228,58 L150,58 C150,36.4608948 167.460895,19 189,19 C210.539105,19 228,36.4608948 228,58 Z"/>
      <rect width="26" height="19" x="31" y="35" fill="#C49832" rx="9.5"/>
      <rect width="26" height="19" x="321" y="35" fill="#C49832" rx="9.5"/>
      <g transform="translate(228 11)">
        <mask id="desk-d" fill="#fff">
          <use xlink:href="#desk-c"/>
        </mask>
        <use fill="#FFF" fill-opacity=".8" xlink:href="#desk-c"/>
        <polygon fill="#727C85" fill-rule="nonzero" points="67.493 51.602 55.19 24.946 82.448 7.784 79.784 3.552 48.81 23.054 60.507 48.398 25.884 58.29 38.316 100.109 43.109 98.684 32.116 61.71" mask="url(#desk-d)" opacity=".146"/>
      </g>
    </g>
    <rect width="120" height="48" x="106" y="273" fill="#DC9A9E" rx="16"/>
  </g>
</svg>
