<svg xmlns="http://www.w3.org/2000/svg" width="113" height="132" viewBox="0 0 113 132">
  <g fill="#D64226">
    <path d="M42.3369606,76.9334783 L42.3369606,92.3048102 C42.3369606,94.3491536 44.657223,95.5292535 46.3093752,94.3252051 L74.4387435,73.8252051 C75.8088574,72.8266994 75.8088574,70.7829211 74.4387435,69.7844154 L46.3093752,49.2844154 C44.657223,48.080367 42.3369606,49.2604669 42.3369606,51.3048102 L42.3369606,66.9185721 C24.1731507,65.8037282 10,53.3919674 10,39 C10,23.0395927 25.4107839,10 45,10 C47.7614237,10 50,7.76142375 50,5 C50,2.23857625 47.7614237,7.10542736e-15 45,7.10542736e-15 C20.2236895,7.10542736e-15 0,17.1119573 0,39 C0,59.3034727 18.9678719,75.7634568 42.3369606,76.9334783 Z" transform="rotate(90 47.5 47.5)"/>
    <path d="M42.3369606,76.9334783 L42.3369606,92.3048102 C42.3369606,94.3491536 44.657223,95.5292535 46.3093752,94.3252051 L74.4387435,73.8252051 C75.8088574,72.8266994 75.8088574,70.7829211 74.4387435,69.7844154 L46.3093752,49.2844154 C44.657223,48.080367 42.3369606,49.2604669 42.3369606,51.3048102 L42.3369606,66.9185721 C24.1731507,65.8037282 10,53.3919674 10,39 C10,23.0395927 25.4107839,10 45,10 C47.7614237,10 50,7.76142375 50,5 C50,2.23857625 47.7614237,7.10542736e-15 45,7.10542736e-15 C20.2236895,7.10542736e-15 0,17.1119573 0,39 C0,59.3034727 18.9678719,75.7634568 42.3369606,76.9334783 Z" transform="rotate(-90 74.5 56.5)"/>
  </g>
</svg>
