<svg xmlns="http://www.w3.org/2000/svg" width="50" height="50" viewBox="0 0 50 50">
  <path fill="#BE9B3E" d="M48.75,27.9166667 L27.9166667,48.75 C26.25,50.4166667 23.75,50.4166667 22.0833333,48.75 C20.4166667,47.0833333 20.4166667,44.5833333 22.0833333,42.9166667 L35.8333333,29.1666667 L4.16666667,29.1666667 C2.08333333,29.1666667 0,27.5 0,25 C0,22.5 1.66666667,20.8333333 4.16666667,20.8333333 L35.8333333,20.8333333 L22.0833333,7.08333333 C20.4166667,5.41666667 20.4166667,2.91666667 22.0833333,1.25 C23.75,-0.416666667 26.25,-0.416666667 27.9166667,1.25 L48.75,22.0833333 L48.75,22.0833333 C50.4166667,23.75 50.4166667,26.25 48.75,27.9166667 Z"/>
</svg>
